<?xml version="1.0" encoding="UTF-8"?>

<!DOCTYPE svg PUBLIC "-//W3C//DTD SVG 1.1//EN" "http://www.w3.org/Graphics/SVG/1.1/DTD/svg11.dtd">

<!-- Creator: CorelDRAW 2020 (64-Bit) -->

<svg xmlns="http://www.w3.org/2000/svg" xml:space="preserve" width="500px" height="79px" version="1.1" style="shape-rendering:geometricPrecision; text-rendering:geometricPrecision; image-rendering:optimizeQuality; fill-rule:evenodd; clip-rule:evenodd"

viewBox="0 0 36.62 5.82"

 xmlns:xlink="http://www.w3.org/1999/xlink"

 xmlns:xodm="http://www.corel.com/coreldraw/odm/2003">

 <defs>

  <style type="text/css">

   <![CDATA[

    .fil0 {fill:#a9a9a9}

   ]]>

  </style>

 </defs>

 <g id="Katman_x0020_1">

  <metadata id="CorelCorpID_0Corel-Layer"/>

  <g id="_2186850997936">

   <path class="fil0" d="M0 5.75l0.95 0c0.03,-0.12 0.05,-0.25 0.07,-0.37 0.05,-0.22 0.51,-2.49 0.51,-2.56 0.03,0.02 0.07,0.16 0.08,0.18l0.2 0.57c0.03,0.06 0.05,0.12 0.07,0.18l0.21 0.57c0.02,0.06 0.04,0.12 0.07,0.19 0.14,0.37 0.26,0.75 0.41,1.12 0.01,0.04 0.02,0.07 0.03,0.1 0.01,0.02 0.02,0.09 0.04,0.09l0.34 0c0.02,0 0.03,-0.06 0.04,-0.08 0.08,-0.21 0.16,-0.45 0.24,-0.66l0.07 -0.19c0.02,-0.06 0.05,-0.12 0.07,-0.19 0.04,-0.13 0.08,-0.26 0.13,-0.38l0.17 -0.46c0.09,-0.26 0.19,-0.51 0.28,-0.76 0.01,-0.03 0.02,-0.07 0.03,-0.1 0.03,-0.05 0.04,-0.11 0.06,-0.16 0.01,-0.01 0.01,-0.01 0.01,-0.01l0.01 -0.02c0,0.06 0.02,0.13 0.03,0.19 0.01,0.05 0.03,0.12 0.04,0.18 0.04,0.25 0.1,0.49 0.14,0.74l0.14 0.74c0.04,0.24 0.1,0.48 0.14,0.73l0.06 0.28c0,0.03 0,0.08 0.03,0.08l0.94 0c0,-0.05 -0.13,-0.63 -0.14,-0.7 -0.25,-1.26 -0.52,-2.52 -0.77,-3.79 -0.03,-0.11 -0.05,-0.23 -0.07,-0.34 -0.03,-0.12 -0.05,-0.23 -0.08,-0.35 -0.01,-0.06 -0.02,-0.12 -0.03,-0.17 -0.01,-0.03 -0.02,-0.16 -0.05,-0.16l-0.51 0c0,0.05 -0.05,0.18 -0.07,0.23l-0.22 0.69c-0.02,0.08 -0.04,0.16 -0.07,0.23 -0.02,0.08 -0.04,0.15 -0.07,0.23 -0.02,0.07 -0.05,0.15 -0.07,0.23 -0.01,0.04 -0.02,0.07 -0.03,0.11l-0.19 0.58c-0.02,0.08 -0.04,0.15 -0.07,0.23 -0.02,0.07 -0.05,0.15 -0.07,0.23l-0.14 0.46c-0.05,0.16 -0.11,0.3 -0.15,0.47l-0.89 -2.77c-0.05,-0.16 -0.09,-0.32 -0.14,-0.47 -0.05,-0.13 -0.1,-0.27 -0.13,-0.4 -0.01,-0.02 -0.01,-0.05 -0.04,-0.05l-0.51 0c0,0.04 -0.15,0.76 -0.17,0.86l-0.21 1.03c-0.01,0.06 -0.02,0.11 -0.03,0.17l-0.07 0.34c-0.16,0.81 -0.32,1.61 -0.48,2.41 -0.03,0.13 -0.14,0.61 -0.14,0.7z"/>

   <path class="fil0" d="M5.91 1.15c0.06,0.01 0.17,0 0.24,0 3.73,0 7.47,0 11.2,0l2.86 0c0.06,0 0.09,0.02 0.09,-0.04l0 -0.83 -14.39 0 0 0.87z"/>

   <path class="fil0" d="M32.93 0.22l0 5.53 0.95 0 0 -1.34c0,-0.03 0.22,-0.23 0.24,-0.26l0.2 -0.22c0.05,0.08 0.42,0.65 0.51,0.8l0.67 1.02 1.12 0c-0.01,-0.05 -0.43,-0.67 -0.5,-0.79l-0.41 -0.62c-0.02,-0.03 -0.04,-0.05 -0.05,-0.08 -0.09,-0.14 -0.26,-0.4 -0.36,-0.54 -0.02,-0.03 -0.03,-0.05 -0.05,-0.08l-0.26 -0.39c0.03,-0.04 0.06,-0.07 0.08,-0.1l0.81 -0.9c0.01,-0.02 0.03,-0.03 0.04,-0.05l0.26 -0.28c0.01,-0.02 0.02,-0.04 0.04,-0.05 0.04,-0.04 0.1,-0.11 0.13,-0.15 -0.34,0 -0.67,0 -1,0 -0.15,0 -0.13,-0.03 -0.25,0.12l-0.35 0.41c-0.02,0.02 -0.04,0.04 -0.06,0.06l-0.28 0.33c-0.06,0.07 -0.12,0.14 -0.18,0.21 -0.05,0.05 -0.16,0.19 -0.2,0.23 -0.05,0.05 -0.11,0.14 -0.15,0.17l0 -3.25 0 0c-0.05,0 -0.08,0.01 -0.12,0.02l-0.83 0.2z"/>

   <path class="fil0" d="M7.52 5.06c-0.21,0 -0.36,0 -0.51,-0.12 -0.05,-0.03 -0.09,-0.08 -0.12,-0.14 -0.1,-0.19 -0.07,-0.53 0.08,-0.69 0.05,-0.06 0.1,-0.11 0.17,-0.14 0.29,-0.16 0.65,-0.19 0.98,-0.15l0.16 0.03c0,0.35 0.05,0.7 -0.18,0.98 -0.02,0.02 -0.03,0.04 -0.05,0.05 -0.03,0.02 -0.03,0.03 -0.06,0.04 -0.04,0.03 -0.08,0.06 -0.13,0.08 -0.09,0.03 -0.21,0.06 -0.34,0.06zm-0.19 0.76l-0.16 0c-0.09,0 -0.17,-0.01 -0.29,-0.03 -0.12,-0.03 -0.13,-0.03 -0.24,-0.07 -0.11,-0.03 -0.21,-0.1 -0.3,-0.16 -0.09,-0.06 -0.17,-0.14 -0.23,-0.23 -0.14,-0.2 -0.23,-0.43 -0.23,-0.69 0,-0.32 0.02,-0.43 0.14,-0.71l0.08 -0.14c0.01,-0.02 0.03,-0.04 0.04,-0.06 0.02,-0.02 0.03,-0.04 0.05,-0.05 0.07,-0.09 0.13,-0.14 0.22,-0.21 0.02,-0.02 0.04,-0.03 0.06,-0.04 0.02,-0.02 0.04,-0.03 0.07,-0.05 0.13,-0.08 0.2,-0.11 0.36,-0.16 0.05,-0.02 0.11,-0.04 0.16,-0.05 0.27,-0.07 0.56,-0.09 0.85,-0.09 0.19,0 0.29,0.04 0.37,0.04 0,-0.13 -0.03,-0.23 -0.07,-0.32 -0.04,-0.08 -0.11,-0.16 -0.18,-0.21 -0.34,-0.22 -0.96,-0.18 -1.35,-0.05 -0.03,0.02 -0.06,0.03 -0.09,0.04 -0.03,0.01 -0.07,0.03 -0.09,0.03 0,-0.03 -0.09,-0.33 -0.1,-0.37l-0.08 -0.27c-0.01,-0.03 -0.02,-0.08 -0.03,-0.1 0.48,-0.25 1.37,-0.29 1.86,-0.16 0.38,0.11 0.68,0.28 0.86,0.63 0.18,0.36 0.23,0.85 0.23,1.26 0,0.25 0,0.49 0,0.74 0,0.29 0,0.74 0.14,0.98 0.08,0.12 0.05,0.08 0.13,0.15 0.01,0.01 0.04,0.03 0.05,0.04 -0.01,0.03 -0.02,0.05 -0.04,0.07 -0.01,0.02 -0.03,0.04 -0.04,0.06 -0.16,0.17 -0.29,0.18 -0.53,0.18 -0.23,0 -0.36,-0.14 -0.48,-0.29 -0.07,-0.1 -0.05,-0.09 -0.09,-0.17 -0.01,0.01 -0.02,0.04 -0.04,0.06 -0.08,0.08 -0.03,0.05 -0.15,0.13 -0.07,0.05 -0.15,0.1 -0.24,0.14 -0.18,0.07 -0.36,0.13 -0.62,0.13l0 0z"/>

   <path class="fil0" d="M19.16 5.04c-0.62,0 -0.88,-0.34 -0.97,-0.94 -0.02,-0.16 -0.01,-0.26 -0.01,-0.42 0,-0.46 0.13,-0.92 0.49,-1.14 0.29,-0.18 0.74,-0.15 1.02,0.06 0.24,0.18 0.34,0.58 0.37,0.87 0,0.03 0,0.05 0,0.07 0,0.03 0,0.03 0,0.06 0,0.11 0.01,0.15 0,0.27 -0.01,0.12 -0.02,0.25 -0.05,0.36 -0.02,0.08 -0.03,0.14 -0.06,0.21 -0.03,0.08 -0.06,0.13 -0.1,0.19 -0.03,0.06 -0.04,0.07 -0.08,0.12 -0.14,0.17 -0.36,0.29 -0.61,0.29zm0.08 0.78l-0.23 0c-0.15,-0.01 -0.3,-0.03 -0.43,-0.05 -0.1,-0.02 -0.2,-0.06 -0.28,-0.09 -0.03,-0.02 -0.05,-0.03 -0.08,-0.04 -0.13,-0.05 -0.2,-0.11 -0.3,-0.18l-0.13 -0.11c-0.08,-0.08 -0.06,-0.07 -0.12,-0.13 -0.2,-0.22 -0.33,-0.5 -0.41,-0.8 -0.07,-0.29 -0.08,-0.46 -0.08,-0.77 0,-0.36 0.09,-0.69 0.24,-1 0.09,-0.18 0.17,-0.3 0.31,-0.44 0.01,-0.01 0.02,-0.02 0.03,-0.03 0.09,-0.07 0.11,-0.12 0.23,-0.2 0.45,-0.33 1.06,-0.4 1.6,-0.3 0.08,0.02 0.13,0.03 0.2,0.05 0.28,0.08 0.56,0.25 0.75,0.47l0.06 0.06c0.14,0.18 0.23,0.33 0.31,0.55 0.08,0.23 0.15,0.52 0.15,0.83 0,0.37 -0.03,0.64 -0.15,0.97 -0.06,0.19 -0.16,0.39 -0.29,0.55l-0.11 0.13c-0.11,0.1 -0.2,0.19 -0.33,0.26 -0.06,0.04 -0.1,0.06 -0.16,0.09 -0.22,0.11 -0.5,0.17 -0.78,0.18z"/>

   <path class="fil0" d="M27.66 5.44c0.01,-0.01 0.02,-0.03 0.05,-0.03 0,0.07 -0.02,0.28 0,0.33 0.03,0.01 0.85,0.01 0.93,0l0 -4.02 -0.93 0 0 2.1c0,0.09 0.01,0.65 -0.01,0.69 -0.02,0.02 -0.03,0.04 -0.05,0.06l-0.06 0.09c-0.08,0.09 -0.23,0.19 -0.33,0.24 -0.26,0.13 -0.62,0.18 -0.87,0.06 -0.05,-0.03 -0.08,-0.06 -0.12,-0.09 -0.08,-0.06 -0.13,-0.17 -0.16,-0.27 -0.07,-0.21 -0.05,-0.51 -0.05,-0.78 0,-0.12 0.01,-2.08 0,-2.09 -0.01,-0.02 -0.16,-0.01 -0.2,-0.01l-0.63 0c-0.13,0 -0.12,-0.03 -0.12,0.09l0 2.62c0,0.05 0.01,0.06 0.01,0.11 0,0.08 0.03,0.28 0.05,0.36 0.09,0.32 0.25,0.57 0.53,0.74 0.19,0.12 0.46,0.17 0.71,0.18l0.17 0c0.06,0 0.12,-0.01 0.18,-0.01 0.12,-0.02 0.24,-0.06 0.34,-0.09 0.05,-0.02 0.1,-0.03 0.15,-0.05 0.13,-0.05 0.24,-0.11 0.35,-0.18 0.02,-0.02 0.05,-0.03 0.06,-0.05z"/>

   <path class="fil0" d="M22.42 1.12c0.01,0.01 0,-0.01 0,0.01l0 1.14c0,0.18 0,3.4 0.01,3.47l0.96 -0.01c0.03,-0.05 -0.01,-4.53 0.01,-4.6l0 -0.01 1.83 0 0 -0.87 -4.56 0 0 0.87 1.75 0z"/>

   <path class="fil0" d="M9.98 3.62c0,0.39 0,0.7 0.15,1.06 0.11,0.3 0.23,0.44 0.44,0.66l0.14 0.11c0.11,0.09 0.19,0.12 0.31,0.18 0.03,0.02 0.06,0.03 0.09,0.04 0.21,0.09 0.48,0.14 0.76,0.15l0.29 0c0.19,-0.01 0.39,-0.03 0.55,-0.06 0.2,-0.04 0.41,-0.16 0.58,-0.25 0.08,-0.04 0.06,-0.04 0.14,-0.08 -0.01,-0.02 -0.03,-0.06 -0.04,-0.09l-0.3 -0.66c-0.04,0.01 -0.08,0.06 -0.14,0.1 -0.15,0.11 -0.38,0.2 -0.57,0.23l-0.22 0.02c-0.04,0 -0.06,-0.01 -0.11,-0.01 -0.24,0 -0.52,-0.08 -0.7,-0.23 -0.3,-0.23 -0.39,-0.61 -0.39,-1.03 0,-0.42 0.12,-0.84 0.44,-1.1 0.31,-0.26 0.87,-0.28 1.22,-0.14 0.07,0.03 0.14,0.06 0.2,0.1 0.07,0.04 0.14,0.11 0.17,0.12 0.07,-0.1 0.24,-0.4 0.31,-0.53 0.02,-0.03 0.03,-0.05 0.05,-0.08l0.05 -0.1c-0.02,-0.01 -0.04,-0.02 -0.06,-0.03l-0.22 -0.14c-0.09,-0.06 -0.35,-0.14 -0.46,-0.17 -0.25,-0.06 -0.41,-0.04 -0.66,-0.04 -0.39,0 -0.84,0.13 -1.15,0.34 -0.13,0.09 -0.25,0.2 -0.37,0.32l-0.13 0.18c-0.04,0.05 -0.07,0.09 -0.1,0.15 -0.03,0.05 -0.06,0.1 -0.09,0.17 -0.08,0.21 -0.13,0.34 -0.16,0.57 -0.01,0.08 -0.02,0.16 -0.02,0.24z"/>

   <path class="fil0" d="M15.12 2.06c0,-0.06 0.01,-0.26 0,-0.32 -0.01,-0.04 -0.05,-0.02 -0.14,-0.02l-0.81 0c-0.01,0.01 -0.01,0.01 -0.01,0.03l0 3.96c0,0.02 0,0.02 0.01,0.04l0.94 0c0.03,-0.06 0,-0.27 0,-0.38l0 -1.84c0,-0.28 0.03,-0.45 0.16,-0.67 0.02,-0.03 0.03,-0.05 0.05,-0.08 0.25,-0.3 0.52,-0.43 0.93,-0.29 0.12,0.04 0.15,0.07 0.25,0.12l0.2 -0.41c0.02,-0.05 0.19,-0.39 0.2,-0.42l-0.13 -0.05c-0.25,-0.1 -0.49,-0.08 -0.75,-0.08 -0.16,0 -0.4,0.07 -0.52,0.13l-0.11 0.06c-0.07,0.04 -0.12,0.09 -0.18,0.14l-0.09 0.08z"/>

   <path class="fil0" d="M30.61 2.07c-0.01,0.01 0.01,0 -0.02,0.02l0 -0.37 -0.93 0 0 4.02 0.93 0c0,-0.42 0,-0.84 0,-1.27 0,-0.17 -0.02,-1.16 0.02,-1.23 0.02,-0.03 0.03,-0.21 0.17,-0.42 0.04,-0.05 0.08,-0.11 0.13,-0.16 0.02,-0.01 0.02,-0.02 0.04,-0.03 0.02,-0.01 0.02,-0.02 0.04,-0.03 0.08,-0.07 0.18,-0.13 0.29,-0.15 0.08,-0.01 0.13,-0.02 0.2,-0.01 0.02,0 0.05,0 0.07,0 0.19,0.03 0.29,0.09 0.43,0.17l0.28 -0.56c0.02,-0.07 0.11,-0.21 0.12,-0.27 -0.02,0 -0.03,-0.01 -0.05,-0.02 -0.06,-0.03 -0.09,-0.04 -0.16,-0.06 -0.07,-0.02 -0.17,-0.04 -0.25,-0.05 -0.13,-0.01 -0.43,-0.01 -0.55,0.01 -0.08,0.01 -0.17,0.03 -0.24,0.06 -0.07,0.02 -0.13,0.06 -0.19,0.1 -0.03,0.01 -0.06,0.03 -0.09,0.05 -0.07,0.04 -0.1,0.07 -0.17,0.12 -0.02,0.02 -0.02,0.02 -0.04,0.04 -0.02,0.01 -0.02,0.02 -0.03,0.04z"/>

   <path class="fil0" d="M5.91 1.15l0 -0.87 14.39 0 0 0.83c0,0.06 -0.03,0.04 -0.09,0.04l-2.86 0c-3.73,0 -7.47,0 -11.2,0 -0.07,0 -0.18,0.01 -0.24,0zm-0.01 0.01l14.38 0c0.02,0 0.02,-0.01 0.02,-0.02l0 -0.87 -14.4 0 0 0.89z"/>

   <path class="fil0" d="M22.41 1.12l0.01 0 -1.75 0 0 -0.87 4.56 0 0 0.87 -1.83 0 0 4.61c0.02,-0.02 0.01,0 0.01,-0.03l0 -2.27c0,-0.77 0,-1.54 0,-2.31l1.82 0 0 -0.88c-1.2,0 -2.39,0 -3.59,0 -0.3,0 -0.6,0 -0.9,0 -0.09,0 -0.08,-0.03 -0.08,0.15l0 0.68c0,0.07 -0.01,0.05 0.17,0.05 0.52,0 1.08,-0.01 1.58,0z"/>

   <path class="fil0" d="M22.41 1.12l0 4.05c0,0.13 -0.01,0.49 0.01,0.58l0.99 0 -0.01 -0.02 0 -4.61 0 0.01c-0.02,0.07 0.02,4.55 -0.01,4.6l-0.96 0.01c-0.01,-0.07 -0.01,-3.29 -0.01,-3.47l0 -1.14c0,-0.02 0.01,0 0,-0.01l-0.01 0z"/>

   <path class="fil0" d="M30.61 3.24c-0.04,0.07 -0.02,1.06 -0.02,1.23 0,0.43 0,0.85 0,1.27l-0.93 0 0 -4.02 0.93 0 0 0.37c0.03,-0.02 0.01,-0.01 0.02,-0.02 -0.01,-0.01 0,0.01 -0.01,-0.01l0 -0.34 -0.95 0 0 4.03 0.95 0 0 -2.36c0,-0.06 0.01,-0.1 0.01,-0.15z"/>

   <path class="fil0" d="M27.7 4.51c0.02,-0.04 0.01,-0.6 0.01,-0.69l0 -2.1 0.93 0 0 4.02c-0.08,0.01 -0.9,0.01 -0.93,0 -0.02,-0.05 0,-0.26 0,-0.33 -0.03,0 -0.04,0.02 -0.05,0.03 0.03,-0.01 0.01,-0.01 0.04,-0.02l0 0.25c0,0.04 -0.01,0.04 0.01,0.08l0.94 0 0 -4.03 -0.95 0c0,0.89 0,1.81 0,2.7 0,0.04 0,0.06 0,0.09z"/>

  </g>

 </g>

</svg>

