<?xml version="1.0" encoding="UTF-8"?>
<svg id="katman_2" data-name="katman 2" xmlns="http://www.w3.org/2000/svg" viewBox="0 0 295.92 295.92">
  <defs>
    <style>
      .cls-1 {
        fill: #fff;
      }

      .cls-2 {
        fill: #020204;
      }

      .cls-3 {
        opacity: .1;
      }
    </style>
  </defs>
  <g id="katman_1" data-name="katman 1">
    <rect class="cls-1" width="295.92" height="295.92"/>
    <g class="cls-3">
      <path class="cls-2" d="M218.18,103.7c-.19-11.65-12.82-17.51-22.98-13.75-7.7,2.85-9.97,12.95-4.9,19.2,5.74,7.08,32.32,13.7,42.08,18.22,20.33,9.43,29.95,27.03,21.88,49.15-10.68,29.27-49.97,33.76-75.65,23.65l1.13,3.39h-25.25L104,63.38h24.68l35.65,98.32,23.33.04c.64,11.78,9.33,16.9,20.49,15.78,9.01-.9,15.41-8.34,12.21-17.39-3.5-9.92-25.21-14.3-34.41-17.6-18.11-6.5-33.22-14.89-34.47-36.38-2.09-35.93,32.87-48.13,63.07-43.85,21.77,3.08,39.48,17.46,40.54,40.5l-.55.9h-36.37Z"/>
      <path class="cls-2" d="M150.35,203.57h-6.59l-9.03-24.52-51.59.08-8.53,24.44h-35.8l50.41-139.33c.19-.55.46-.75,1.03-.86,1.29-.24,6.53-.19,7.94-.02.42.05.82,0,1.11.39l51.06,139.82ZM126.23,152.31l-17.15-50.88-17.15,50.88h34.29Z"/>
      <g>
        <path class="cls-2" d="M52.85,231.26h-6.58l-.98,2.98h-6.49l7.22-19.73h7.14l7.19,19.73h-6.52l-.98-2.98ZM51.34,226.61l-1.78-5.49-1.78,5.49h3.57Z"/>
        <path class="cls-2" d="M67.93,229.56h5.96v4.68h-12.15v-19.73h6.19v15.05Z"/>
        <path class="cls-2" d="M82.03,214.51v19.73h-6.19v-19.73h6.19ZM77.22,212.19c-.45-.46-.68-1.02-.68-1.69s.23-1.26.68-1.73c.46-.46,1.02-.7,1.69-.7.71,0,1.29.23,1.74.68.45.45.68,1.03.68,1.74,0,.67-.23,1.23-.7,1.69-.46.46-1.04.68-1.73.68s-1.23-.23-1.69-.68Z"/>
        <path class="cls-2" d="M86.43,214.51h6.13l-3.29,8.22h-4.07l1.23-8.22Z"/>
        <path class="cls-2" d="M97.23,232.78c-1.53-1.1-2.36-2.73-2.49-4.86h6.58c.09,1.13.59,1.7,1.5,1.7.33,0,.62-.08.85-.24.23-.16.35-.4.35-.74,0-.46-.25-.84-.75-1.13-.5-.29-1.28-.62-2.34-.99-1.26-.44-2.31-.88-3.14-1.31-.83-.43-1.54-1.05-2.13-1.87-.59-.82-.88-1.87-.86-3.15,0-1.28.33-2.37.99-3.28.66-.9,1.56-1.58,2.7-2.05,1.14-.46,2.43-.7,3.86-.7,2.42,0,4.33.56,5.76,1.67,1.42,1.11,2.17,2.69,2.24,4.71h-6.66c-.02-.56-.16-.96-.42-1.2-.26-.24-.58-.36-.95-.36-.26,0-.47.09-.64.27-.17.18-.25.42-.25.74,0,.44.25.81.74,1.1.49.29,1.28.64,2.35,1.05,1.25.46,2.27.91,3.08,1.34.81.43,1.51,1.02,2.1,1.78.6.76.89,1.72.89,2.87,0,1.21-.3,2.29-.89,3.25-.59.96-1.46,1.71-2.59,2.25-1.13.54-2.48.81-4.04.81-2.36,0-4.31-.55-5.84-1.66Z"/>
        <path class="cls-2" d="M123.7,219.45v2.42h6.13v4.65h-6.13v2.79h6.97v4.93h-13.16v-19.73h13.16v4.93h-6.97Z"/>
        <path class="cls-2" d="M152.88,214.51l-6.63,19.73h-8l-6.63-19.73h6.58l4.07,13.57,4.04-13.57h6.58Z"/>
        <path class="cls-2" d="M166.92,231.26h-6.58l-.98,2.98h-6.49l7.22-19.73h7.14l7.19,19.73h-6.52l-.98-2.98ZM165.42,226.61l-1.78-5.49-1.78,5.49h3.57Z"/>
        <path class="cls-2" d="M182.43,232.78c-1.53-1.1-2.36-2.73-2.49-4.86h6.58c.09,1.13.59,1.7,1.5,1.7.33,0,.62-.08.85-.24.23-.16.35-.4.35-.74,0-.46-.25-.84-.75-1.13-.5-.29-1.28-.62-2.34-.99-1.26-.44-2.31-.88-3.14-1.31-.83-.43-1.54-1.05-2.13-1.87-.59-.82-.88-1.87-.86-3.15,0-1.28.33-2.37.99-3.28.66-.9,1.56-1.58,2.7-2.05,1.14-.46,2.43-.7,3.86-.7,2.42,0,4.33.56,5.76,1.67,1.42,1.11,2.17,2.69,2.24,4.71h-6.66c-.02-.56-.16-.96-.42-1.2-.26-.24-.58-.36-.95-.36-.26,0-.47.09-.64.27-.17.18-.25.42-.25.74,0,.44.25.81.74,1.1.49.29,1.28.64,2.35,1.05,1.25.46,2.27.91,3.08,1.34.81.43,1.51,1.02,2.1,1.78.6.76.89,1.72.89,2.87,0,1.21-.3,2.29-.89,3.25-.59.96-1.46,1.71-2.59,2.25-1.13.54-2.48.81-4.04.81-2.36,0-4.31-.55-5.84-1.66Z"/>
        <path class="cls-2" d="M216.23,214.51v19.73h-6.19v-7.69h-5.88v7.69h-6.19v-19.73h6.19v7.11h5.88v-7.11h6.19Z"/>
        <path class="cls-2" d="M223.52,233.13c-1.55-.87-2.78-2.08-3.69-3.62-.91-1.54-1.37-3.28-1.37-5.21s.46-3.67,1.37-5.21c.91-1.54,2.14-2.74,3.69-3.61s3.26-1.3,5.11-1.3,3.56.43,5.1,1.3c1.54.86,2.76,2.07,3.67,3.61.9,1.54,1.35,3.28,1.35,5.21s-.45,3.67-1.35,5.21c-.9,1.54-2.13,2.75-3.68,3.62-1.55.88-3.25,1.31-5.09,1.31s-3.56-.44-5.11-1.31ZM231.47,227.49c.67-.79,1-1.85,1-3.19s-.33-2.43-1-3.22-1.62-1.18-2.84-1.18-2.2.39-2.87,1.18-1,1.86-1,3.22.33,2.4,1,3.19,1.63,1.18,2.87,1.18,2.17-.39,2.84-1.18Z"/>
        <path class="cls-2" d="M256.25,224.67c-.58,1.01-1.43,1.82-2.55,2.41-1.13.59-2.49.89-4.08.89h-2.45v6.27h-6.19v-19.73h8.64c2.42,0,4.27.61,5.56,1.84,1.29,1.23,1.94,2.87,1.94,4.93,0,1.25-.29,2.37-.86,3.39ZM250.84,221.29c0-1.21-.64-1.81-1.92-1.81h-1.76v3.62h1.76c1.28,0,1.92-.6,1.92-1.81Z"/>
      </g>
    </g>
  </g>
</svg>